<svg width="86" height="86" viewBox="0 0 86 86" fill="none" xmlns="http://www.w3.org/2000/svg">
<g clip-path="url(#clip0_38_44)">
<path d="M39.1368 0.167977C31.0407 0.890243 23.1797 4.03126 16.461 9.2047C13.1856 11.7242 8.93599 16.4609 6.48364 20.3242C5.42544 21.9871 3.35942 26.2199 2.62036 28.2356C1.79731 30.4863 0.90708 33.9465 0.470361 36.6172C-0.0503418 39.8926 -0.0503418 46.1074 0.470361 49.3828C1.22622 54.0188 2.4188 57.7477 4.45122 61.8965C6.66841 66.4149 8.96958 69.6231 12.6649 73.3352C16.377 77.0305 19.5852 79.3317 24.1036 81.5488C28.2524 83.5813 31.9813 84.7738 36.6172 85.5297C39.8926 86.0504 46.1075 86.0504 49.3829 85.5297C52.0536 85.093 55.5137 84.2027 57.7645 83.3797C59.7801 82.6406 64.0129 80.5746 65.6758 79.5164C71.0676 76.0899 76.0899 71.0676 79.5165 65.6758C80.5747 64.0129 82.6407 59.7801 83.3797 57.7645C84.7739 53.9348 85.7313 49.2317 85.9329 45.0156C86.0672 42.4289 85.9329 41.8074 85.1098 40.8668C83.3965 38.9184 80.2219 39.775 79.634 42.3281C79.5333 42.7481 79.4493 43.6551 79.4493 44.3774C79.4493 46.2922 78.979 49.5172 78.3575 52.0031C75.1493 64.8192 64.8192 75.1492 52.0032 78.3574C46.1411 79.8356 39.7583 79.8188 33.9297 78.3406C19.5516 74.6621 8.71763 62.434 6.81958 47.7367C6.48364 45.0828 6.48364 40.9172 6.81958 38.2633C8.70083 23.5828 19.5684 11.3379 33.9297 7.65938C36.4493 7.0211 39.6743 6.55079 41.6227 6.55079C44.0247 6.53399 45.2508 5.9797 45.8723 4.63595C46.6618 2.90587 45.9899 1.1254 44.2598 0.319149C43.5208 -0.0167885 41.8411 -0.0671791 39.1368 0.167977Z" fill="#007300"/>
<path d="M80.541 10.9012C80.2723 10.9684 79.8524 11.1195 79.6172 11.2539C79.3821 11.3715 70.3957 20.257 59.6289 31.007L40.0606 50.525L35.1895 45.234C26.1696 35.4078 25.6992 34.9207 24.893 34.568C23.3645 33.8793 21.5504 34.5176 20.8449 35.9789C20.3914 36.9195 20.3914 38.1121 20.8114 38.9352C21.0969 39.4894 25.9344 44.8141 35.0719 54.657C38.1289 57.9492 38.7672 58.4531 39.9766 58.4531C41.3875 58.4531 41.1188 58.7051 63.0219 36.8355C85.6641 14.227 84.6395 15.3355 84.4547 13.6895C84.2364 11.8418 82.2879 10.4645 80.541 10.9012Z" fill="#007300"/>
</g>
<defs>
<clipPath id="clip0_38_44">
<rect width="86" height="86" fill="white"/>
</clipPath>
</defs>
</svg>
