<svg width="45" height="47" viewBox="0 0 45 47" fill="none" xmlns="http://www.w3.org/2000/svg">
<path d="M16.1719 27.9752H34.5L28.5469 19.7698L23.7188 26.2477L20.5312 22.073L16.1719 27.9752ZM12.1875 36.4685C11.4375 36.4685 10.7812 36.1806 10.2187 35.6048C9.65625 35.029 9.375 34.3572 9.375 33.5894V6.71784C9.375 5.95008 9.65625 5.27829 10.2187 4.70247C10.7812 4.12666 11.4375 3.83875 12.1875 3.83875H38.4375C39.1875 3.83875 39.8438 4.12666 40.4062 4.70247C40.9688 5.27829 41.25 5.95008 41.25 6.71784V33.5894C41.25 34.3572 40.9688 35.029 40.4062 35.6048C39.8438 36.1806 39.1875 36.4685 38.4375 36.4685H12.1875ZM12.1875 33.5894H38.4375V6.71784H12.1875V33.5894ZM6.5625 42.2267C5.8125 42.2267 5.15625 41.9388 4.59375 41.363C4.03125 40.7872 3.75 40.1154 3.75 39.3476V9.59694H6.5625V39.3476H35.625V42.2267H6.5625ZM12.1875 6.71784V33.5894V6.71784Z" fill="#007300"/>
</svg>
